<?xml version="1.0" encoding="utf-8"?>
<!-- Generator: Adobe Illustrator 19.2.1, SVG Export Plug-In . SVG Version: 6.00 Build 0)  -->
<svg version="1.1" id="layer" xmlns="http://www.w3.org/2000/svg" xmlns:xlink="http://www.w3.org/1999/xlink" x="0px" y="0px"
	 viewBox="0 0 652 652" style="enable-background:new 0 0 652 652;" xml:space="preserve">
<style type="text/css">
	.st0{fill:#004380;}
	.st1{fill-rule:evenodd;clip-rule:evenodd;fill:#004380;}
</style>
<g>
	<polygon class="st0" points="123,305.6 138.6,305.6 138.6,319.3 144.8,319.3 144.8,305.6 160.5,305.6 160.5,347.1 144.8,347.1 
		144.8,331.2 138.6,331.2 138.6,347.1 123,347.1 	"/>
	<path class="st0" d="M173.5,305.6H195l10.7,41.5h-16l-1.2-6.5h-8.6l-1.2,6.5h-16.1L173.5,305.6z M181.2,332.6h6.2l-2.9-19.4h-0.1
		L181.2,332.6z"/>
	<g>
		<path class="st0" d="M227.9,317c0-1.3-0.1-2.4-0.6-3.1c-0.5-0.8-1.4-1.2-3-1.2c-1.7,0-2.8,1.5-2.8,3.1c0,7.7,21.8,3.1,21.8,18.2
			c0,11-8.1,14.4-18.1,14.4c-10,0-20.4-1.3-19.7-13.2H221c0.1,1.6,0.2,3,0.6,3.9c0.5,0.9,1.2,1.5,2.6,1.5c2.1,0,3.6-1.6,3.6-3.6
			c0-9.2-21.7-3.2-21.7-18.3c0-10,6.3-14.3,18.1-14.3c14.9,0,18.2,5.9,18.2,12.7H227.9z"/>
		<path class="st0" d="M267.7,317c0-1.3-0.1-2.4-0.6-3.1c-0.5-0.8-1.4-1.2-3-1.2c-1.7,0-2.8,1.5-2.8,3.1c0,7.7,21.8,3.1,21.8,18.2
			c0,11-8.1,14.4-18.1,14.4c-10,0-20.4-1.3-19.7-13.2h15.4c0.1,1.6,0.2,3,0.6,3.9c0.5,0.9,1.2,1.5,2.6,1.5c2.1,0,3.6-1.6,3.6-3.6
			c0-9.2-21.7-3.2-21.7-18.3c0-10,6.3-14.3,18.1-14.3c14.9,0,18.2,5.9,18.2,12.7H267.7z"/>
		<polygon class="st0" points="287.1,305.6 319.3,305.6 319.3,315.5 302.8,315.5 302.8,321.6 318,321.6 318,330.5 302.8,330.5 
			302.8,337.2 319.3,337.2 319.3,347.1 287.1,347.1 		"/>
		<path class="st0" d="M372.5,347.1l-2.8-3.1c-3,3.4-7,4.4-12.4,4.4s-14.6-2.1-14.6-9.9c0-6,6-9.4,11-10.6v-0.1
			c-4.3-1.9-6.6-5.9-6.6-10.6c0-7.7,9-10.1,17.2-10.1c7.3,0,15.2,3.1,15.2,9.5c0,5.6-5.2,8.5-9.7,10.2l4.6,4.4l3.8-3.7h11.4
			l-10.2,8.6l11.5,11.1H372.5z M358.8,333.3c-1.2,0.9-2.4,2-2.4,3.7c0,2.3,2.4,3.5,4.5,3.5c1.3,0,2.8-0.4,3.7-1.5L358.8,333.3z
			 M361.3,315.6c0,3.4,2.4,5.2,3.7,6.5c1.3-1.5,2.8-3.3,2.8-5.8c0-2-1.1-3.2-3.5-3.2C362.7,313.2,361.3,314.3,361.3,315.6"/>
		<polygon class="st0" points="410.8,305.6 423.6,305.6 427,336.9 427.1,336.9 430.9,305.6 449.1,305.6 452.8,336.9 453,336.9 
			456.4,305.6 469.2,305.6 463.4,347.1 443.7,347.1 440.1,319 440,319 436.3,347.1 416.6,347.1 		"/>
		<path class="st0" d="M472.3,305.6h24.3c9.1,0,13.5,3.4,13.5,11.5c0,5.2-3.1,8.5-8.2,9.1v0.1c3.3,0.3,8.1,2.4,8.1,7.5v9.3
			c0,2.3,1.1,3.4,2.1,3.8l-0.1,0.1h-15.5c-1.4,0-2.3-1.2-2.3-3v-9.1c0-3.5-1.1-4.9-4-4.9H488v17.1h-15.7V305.6z M488,322h2.5
			c2.8,0,3.9-2.1,3.9-4.5c0-3-1.9-3.9-4.2-3.9H488V322z"/>
		<polygon class="st0" points="515.1,305.6 547.2,305.6 547.2,315.5 530.7,315.5 530.7,321.6 545.9,321.6 545.9,330.5 530.7,330.5 
			530.7,337.2 547.2,337.2 547.2,347.1 515.1,347.1 		"/>
		<path class="st0" d="M552,305.7L552,305.7l22.2-0.1c10.8,0,15.3,4.4,15.3,13.9v13.7c0,9.5-4.5,13.9-15.3,13.9H552V305.7z
			 M567.4,338.3h2.5c2.8,0,3.8-1.1,3.8-4.3v-15.2c0-3.2-1-4.3-3.8-4.3h-2.5V338.3z"/>
		<polygon class="st0" points="594.7,305.6 626.8,305.6 626.8,315.5 610.3,315.5 610.3,321.6 625.5,321.6 625.5,330.5 610.3,330.5 
			610.3,337.2 626.8,337.2 626.8,347.1 594.7,347.1 		"/>
		<path class="st0" d="M43.4,309.2c-11.2,16.1-5.9,36.2,12.6,45.5l10.5-9.1c0,0,0,0,0.1,0l10.5,9.1c20.2-9.9,22.9-32.3,12.5-45.6
			l-5.8,3.9c12.5,20.1-4.9,31.7-6.2,32.4l-11.1-10.5c0,0,0,0-0.1,0l-11.5,10.6c-1.6-1.3-18.4-12.4-6-32.4L43.4,309.2
			C43.5,309.2,43.4,309.2,43.4,309.2"/>
		<path class="st0" d="M49.7,303.6c7.5,8.4-2.4,13-2.4,21.6c-0.5,5.5,0,9.8,7.9,17l4.7-4.4c-4.3-3.4-6.3-7.1-5.4-11.7h24
			c0.9,4.3-0.2,7.6-5,11.4l5.3,4.7c7.2-8.3,7.3-11.7,7.1-17.6c0-8.2-9.5-12.3-2.6-20.8l-6.2-3.8c-2.6,4.4-5.6,10.2-2.2,18.6H58
			c4.4-8.6,1.4-14.1-1.9-18.7L49.7,303.6C49.7,303.6,49.7,303.6,49.7,303.6"/>
		<path class="st1" d="M90.7,349.8c-6.1,6.3-14.6,10.3-24.1,10.3s-18-3.9-24.1-10.3l-8.8,0c7.2,10.6,19.2,17.5,32.8,17.5
			c13.6,0,25.6-6.9,32.8-17.5L90.7,349.8z"/>
		<path class="st1" d="M99.8,328c-0.2,8.5-3.6,16.1-9.1,21.9l8.6,0c4.2-6.2,6.8-13.8,6.9-21.9H99.8L99.8,328z M33.8,349.8
			c-4.2-6.2-6.8-13.8-6.9-21.9h6.7c0.2,8.4,3.6,16.1,9.1,21.9L33.8,349.8L33.8,349.8z"/>
		<path class="st1" d="M26.8,328c0-0.3,0-0.5,0-0.8c0-22.1,17.8-40.1,39.7-40.1s39.7,18.1,39.7,40.1c0,0.3,0,0.5,0,0.8l-6.4,0
			c0-0.2,0-0.4,0-0.6c0-18.1-14.9-32.8-33.2-32.8c-18.3,0-33.2,14.7-33.2,32.8c0,0.2,0,0.4,0,0.6L26.8,328L26.8,328z"/>
	</g>
</g>
</svg>
